<?xml version="1.0" encoding="UTF-8"?><svg id="Layer_2" xmlns="http://www.w3.org/2000/svg" viewBox="0 0 288.05 52.94"><g id="Layer_1-2"><path d="M11.26,44.25c12.79-9.78,24.99-20.22,36.49-31.5l-12.8-5.3c.46,10.49,.86,20.99,1.39,31.47,.24,4.77,.81,9.53,5.12,12.4,3.87,2.57,8.8,1.68,12.87,.22,15.54-5.57,26.24-20.64,42.72-23.77,18.36-3.49,37.62,5.66,55.24,9.56,19.58,4.33,39.68,6.16,59.7,6.53,22.98,.43,45.93-1.01,68.85-2.47,9.59-.61,9.66-15.62,0-15-33.79,2.16-67.87,4.3-101.62,.36-16.28-1.9-31.78-6.23-47.58-10.35-15.3-3.99-31.82-6.7-46.93-.54-7.05,2.88-13.04,7.31-19.12,11.82-4.95,3.68-12.47,10.42-19.05,10.26l3.79,1.02c1.56,.71,.77,3.22,1-.03,.11-1.58-.15-3.33-.22-4.92-.13-2.95-.26-5.9-.39-8.85-.26-5.9-.52-11.8-.78-17.7-.28-6.42-8.03-9.98-12.8-5.3C26.57,12.5,15.44,22.3,3.69,31.29c-3.24,2.48-4.87,6.43-2.69,10.26,1.81,3.19,7.05,5.15,10.26,2.69h0Z"/></g></svg>