<?xml version="1.0" encoding="UTF-8"?><svg id="Layer_2" xmlns="http://www.w3.org/2000/svg" viewBox="0 0 306.39 35.05"><g id="Layer_1-2"><path d="M14.68,29.68c.9-3.89,1.77-7.79,2.69-11.68,1.43-6.09-.89,.06-1.38-1.08,0,0,2.78,.39,1.8,.12,3.47,.94,7.93,.58,11.53,.8,8.49,.52,16.99,.92,25.48,1.25,19.7,.76,39.42,1.14,59.14,1.33,42.7,.41,85.44-.04,128.11-1.77,18.96-.77,37.94-1.76,56.84-3.61,4.03-.39,7.5-3.16,7.5-7.5,0-3.75-3.44-7.9-7.5-7.5-38.96,3.81-78.28,4.65-117.4,5.21-43.01,.62-86.07,.47-129.05-1.25-9.36-.38-18.73-.84-28.08-1.47-4.99-.34-10.7-1.52-15.27,1.12C2.14,7.65,1.82,18.74,.22,25.69c-2.16,9.4,12.3,13.41,14.46,3.99h0Z"/></g></svg>