<?xml version="1.0" encoding="UTF-8"?><svg id="Layer_1" xmlns="http://www.w3.org/2000/svg" viewBox="0 0 426.84 308.57"><defs><style>.cls-1{fill:#1a171b;}</style></defs><path class="cls-1" d="M44.68,182.18c69.87,.76,139.72-5.65,208.31-18.95,9.47-1.84,5.46-16.3-3.99-14.46-67.3,13.05-135.78,19.16-204.33,18.41-9.66-.11-9.66,14.89,0,15h0Z"/><path class="cls-1" d="M39.08,213.76c87.74-9.34,175.39-19.56,262.92-30.68,25.01-3.18,50.01-6.43,75-9.75,4.01-.53,7.5-3.07,7.5-7.5,0-3.64-3.46-8.04-7.5-7.5-87.47,11.63-175.05,22.38-262.74,32.22-25.05,2.81-50.12,5.55-75.18,8.22-4.03,.43-7.5,3.14-7.5,7.5,0,3.72,3.45,7.93,7.5,7.5h0Z"/><path class="cls-1" d="M48.61,247.56c79.4-2.66,157.25-21.36,236.64-24.06,9.63-.33,9.67-15.33,0-15-79.39,2.71-157.25,21.4-236.64,24.06-9.63,.32-9.67,15.32,0,15h0Z"/></svg>