<?xml version="1.0" encoding="UTF-8"?><svg id="Layer_1" xmlns="http://www.w3.org/2000/svg" viewBox="0 0 426.84 308.57"><defs><style>.cls-1{fill:#1a171b;}</style></defs><path class="cls-1" d="M160.58,208.18c16.13-14,31.07-28.99,45.13-45.07,14.06-16.08,28.44-31.66,44.06-46.25,7.07-6.6-3.55-17.19-10.61-10.61-15.62,14.59-30,30.18-44.06,46.25-14.05,16.07-29,31.06-45.13,45.07-7.3,6.34,3.34,16.91,10.61,10.61h0Z"/><path class="cls-1" d="M143.4,111.12c15.73,20.91,32.24,41.11,49.78,60.52,17.39,19.24,34.73,38.46,51.23,58.49,2.6,3.15,7.91,2.64,10.61,0,3.13-3.06,2.56-7.5,0-10.61-32.32-39.23-68.08-75.3-98.67-115.97-2.45-3.26-6.45-4.86-10.26-2.69-3.21,1.83-5.12,7.03-2.69,10.26h0Z"/></svg>