<?xml version="1.0" encoding="UTF-8"?><svg id="Layer_1" xmlns="http://www.w3.org/2000/svg" viewBox="0 0 290.35 308.57"><defs><style>.cls-1{fill:#1a171b;}</style></defs><path class="cls-1" d="M141.01,37.12c-4.64,66.45-1.47,133.2,9.1,198.96,.64,3.99,5.63,6.25,9.23,5.24,4.25-1.19,5.89-5.2,5.24-9.23-10.35-64.4-13.11-129.92-8.56-194.97,.67-9.63-14.33-9.59-15,0h0Z"/><path class="cls-1" d="M45.35,192.16c57.99-42.41,115.98-84.82,173.97-127.23,3.29-2.41,4.84-6.48,2.69-10.26-1.85-3.25-7-5.08-10.26-2.69-57.99,42.41-115.98,84.82-173.97,127.23-3.29,2.41-4.84,6.48-2.69,10.26,1.85,3.25,7,5.08,10.26,2.69h0Z"/></svg>