<?xml version="1.0" encoding="UTF-8"?><svg id="Layer_2" xmlns="http://www.w3.org/2000/svg" viewBox="0 0 338.66 48.76"><defs><style>.cls-1{fill:#1a171b;}</style></defs><g id="Layer_1-2"><g><path class="cls-1" d="M35.02,7.16c1.16,1.36,1.99,2.97,2.48,4.84,.49,1.87,.63,3.75,.44,5.65-.2,1.9-.67,3.72-1.42,5.48-1.83,4.35-4.46,8.24-7.89,11.68-3.44,3.44-7.11,6.15-11.02,8.14-3.91,1.98-7.92,3.34-12.03,4.07-1.81,.33-3.27-.38-4.39-2.11-.95-1.43-1.33-2.99-1.12-4.67,.23-1.76,1.07-2.89,2.52-3.39,.21-.05,.43-.1,.65-.15,.44-.08,1.09-.21,1.96-.42,2.39-7.54,5.15-14.58,8.28-21.14-.85-.13-1.55-.55-2.09-1.26-.54-.72-.85-1.56-.92-2.54-.07-.98,0-1.97,.23-2.96,.23-.99,.7-1.86,1.4-2.62,.71-.75,1.55-1.21,2.52-1.36,4.4-.73,7.57-1.11,9.5-1.13,4.98-.05,8.61,1.24,10.9,3.88Zm-11.8,18.88c1.93-2.09,3.25-3.68,3.95-4.79,2.14-3.21,2.11-5.47-.09-6.78-.68-.4-1.68-.63-2.99-.68,.06,1.11-.17,2.18-.68,3.24-2.47,4.8-4.63,9.58-6.48,14.35,2.32-1.53,4.42-3.32,6.29-5.35Z"/><path class="cls-1" d="M57.27,17.79c1.79,.08,3.05,1.03,3.8,2.86,.75,1.83,.75,3.63,.02,5.39-.74,1.76-2.01,2.6-3.81,2.52-2.86-.15-5.83-.13-8.9,.08-.29,.78-.74,1.96-1.35,3.54-.61,1.58-1.07,2.76-1.39,3.54,.14-.02,.46-.06,.93-.11,.48-.05,.83-.09,1.06-.11,1.62-.15,3.16-.39,4.64-.72,1.25-.28,2.39-.08,3.42,.58,1.04,.67,1.72,1.73,2.05,3.18,.31,1.36,.16,2.73-.47,4.13s-1.5,2.22-2.65,2.47c-.06,0-.35,.06-.87,.19-.52,.13-.88,.21-1.09,.25-.21,.04-.6,.11-1.18,.23s-1.04,.19-1.37,.25c-.33,.05-.79,.12-1.39,.21-.59,.09-1.09,.15-1.49,.19-.41,.04-.89,.07-1.45,.09-.56,.02-1.06,.02-1.49,0-.44-.03-.9-.07-1.39-.13-.49-.06-.94-.14-1.35-.24-1,1.61-2.2,2.37-3.61,2.28-1.41-.09-2.59-.99-3.53-2.71-.94-1.72-1.05-3.54-.33-5.44,.85-2.21,2.14-5.53,3.86-9.97,1.72-4.43,3.01-7.77,3.86-10,.52-1.33,1.27-2.19,2.26-2.58,.99-.39,1.91-.31,2.79,.24h.16c3.53-.28,6.95-.34,10.27-.19Zm8-15c.79-.02,1.49,.15,2.1,.53,.61,.38,1.08,.88,1.4,1.51,.32,.63,.55,1.32,.7,2.07,.14,.75,.14,1.52,0,2.3-.15,.78-.38,1.48-.7,2.11-.32,.63-.79,1.15-1.4,1.56-.61,.42-1.31,.63-2.1,.66-1.99,.05-4.98,.13-8.95,.23-3.97,.1-6.96,.18-8.95,.23-.79,.03-1.49-.15-2.1-.53-.61-.38-1.08-.88-1.4-1.51-.32-.63-.56-1.32-.7-2.07-.15-.75-.15-1.52,0-2.3,.14-.78,.38-1.48,.7-2.11,.32-.63,.79-1.15,1.4-1.56,.61-.41,1.31-.63,2.1-.66,1.99-.05,4.98-.13,8.95-.23,3.97-.1,6.96-.18,8.95-.23Z"/><path class="cls-1" d="M97.67,7.16c1.16,1.36,1.99,2.97,2.48,4.84,.49,1.87,.63,3.75,.44,5.65-.2,1.9-.67,3.72-1.42,5.48-1.83,4.35-4.46,8.24-7.89,11.68-3.44,3.44-7.11,6.15-11.02,8.14-3.91,1.98-7.92,3.34-12.03,4.07-1.81,.33-3.27-.38-4.39-2.11-.95-1.43-1.33-2.99-1.12-4.67,.23-1.76,1.07-2.89,2.52-3.39,.21-.05,.43-.1,.65-.15,.44-.08,1.09-.21,1.96-.42,2.39-7.54,5.15-14.58,8.28-21.14-.85-.13-1.55-.55-2.09-1.26-.54-.72-.85-1.56-.92-2.54-.07-.98,0-1.97,.23-2.96,.23-.99,.7-1.86,1.4-2.62,.71-.75,1.55-1.21,2.52-1.36,4.4-.73,7.57-1.11,9.5-1.13,4.98-.05,8.61,1.24,10.9,3.88Zm-11.8,18.88c1.93-2.09,3.25-3.68,3.95-4.79,2.14-3.21,2.11-5.47-.09-6.78-.68-.4-1.68-.63-2.99-.68,.06,1.11-.17,2.18-.68,3.24-2.47,4.8-4.63,9.58-6.48,14.35,2.32-1.53,4.42-3.32,6.29-5.35Z"/><path class="cls-1" d="M105.85,16.32c.73-1.88,1.87-2.78,3.42-2.68,1.33,.05,2.46,.75,3.39,2.11,1.14,1.63,1.42,3.42,.84,5.35-.06,.18-.13,.35-.19,.53-.87,2.26-2.18,5.64-3.94,10.13-1.75,4.5-3.07,7.88-3.94,10.14-.73,1.88-1.87,2.79-3.42,2.71-1.31-.08-2.44-.78-3.39-2.11-1.14-1.61-1.42-3.38-.84-5.31,.06-.2,.12-.39,.19-.56,.87-2.26,2.18-5.65,3.94-10.15,1.75-4.51,3.07-7.89,3.94-10.15Zm12.76-13.07c.27,.63,.39,1.29,.37,2,.02,.7-.1,1.38-.37,2.03-.19,.68-.49,1.24-.9,1.7-.31,.38-.62,.67-.93,.87l-.03,.04s-.04,.04-.06,.04c-.11,.08-.27,.17-.5,.28-.23,.11-.4,.19-.53,.24-.04,.03-.08,.04-.12,.04-.12,.03-.32,.06-.58,.09s-.45,.07-.58,.09h-.09c-1.39,0-2.53-.58-3.42-1.73-.5-.6-.86-1.37-1.09-2.3-.02-.15-.05-.38-.08-.7-.03-.31-.06-.55-.08-.7,0-.95,.2-1.83,.59-2.64,.08-.13,.2-.31,.34-.55,.15-.24,.25-.41,.31-.51,.37-.5,.84-.87,1.4-1.09,.52-.33,1.08-.48,1.68-.45,.21,0,.36,.01,.47,.04,.04,0,.08,0,.12-.02,.04-.01,.08-.02,.12-.02,.79,0,1.51,.24,2.18,.72,.1,.1,.25,.25,.43,.43,.19,.19,.33,.32,.44,.39,.42,.45,.72,1.02,.9,1.7Z"/><path class="cls-1" d="M129.41,19.18c-1.79,2.16-3.21,4.57-4.27,7.23-1.83,4.67-2.08,7.57-.75,8.7,.29,.25,.63,.39,1.03,.41,.39,.03,.76-.02,1.11-.15,.34-.13,.74-.36,1.2-.7,.46-.34,.82-.63,1.11-.89s.64-.62,1.09-1.09,.74-.8,.89-.98c.15-.18,.37-.45,.68-.83,.56-.68,1.18-1.14,1.85-1.38,.67-.24,1.31-.27,1.9-.09,.59,.18,1.16,.47,1.71,.89,.55,.41,1,.95,1.34,1.62,.34,.67,.59,1.36,.73,2.07,.14,.72,.11,1.48-.09,2.28-.21,.8-.59,1.54-1.15,2.22-1.25,1.48-2.55,2.78-3.91,3.88-1.36,1.11-2.82,2.03-4.37,2.77-1.56,.74-3.18,1.06-4.87,.96-1.69-.1-3.3-.68-4.84-1.73-1.41-.96-2.53-2.21-3.35-3.77s-1.32-3.23-1.51-5.03c-.19-1.8-.18-3.6,.03-5.41s.59-3.6,1.15-5.39c1.27-4.04,3.05-7.76,5.35-11.15,2.3-3.39,4.93-5.88,7.88-7.46,3.11-1.66,5.87-1.76,8.27-.32,2.4,1.44,4.03,4.14,4.9,8.08,.19,.93,.21,1.8,.06,2.62-.15,.82-.44,1.5-.87,2.05-.44,.55-.93,1.01-1.49,1.37-.56,.36-1.17,.56-1.82,.6-.65,.04-1.27-.05-1.85-.26-.58-.21-1.11-.63-1.57-1.24-.47-.61-.8-1.37-1.01-2.28-.06-.28-.1-.59-.12-.94-.02-.3-.07-.45-.16-.45-.08,.02-.38,.23-.9,.6-.1,.08-.19,.14-.25,.19-1.16,.88-2.2,1.87-3.11,2.98Z"/><path class="cls-1" d="M199.59,3.02c.79,0,1.49,.2,2.12,.58,.62,.39,1.09,.9,1.42,1.54,.32,.64,.56,1.34,.7,2.11,.14,.77,.14,1.53,0,2.3-.15,.77-.38,1.47-.7,2.11-.32,.64-.79,1.16-1.42,1.56-.62,.4-1.33,.6-2.12,.6-1.37,0-2.74,.04-4.11,.11-1.23,3.44-3.08,8.6-5.56,15.47-2.48,6.87-4.33,12.01-5.56,15.43-.71,1.93-1.84,2.88-3.39,2.83-1.35-.05-2.52-.77-3.52-2.15-1.18-1.63-1.52-3.47-1-5.5,.04-.2,.1-.41,.19-.64,.98-2.74,2.44-6.82,4.41-12.24,1.96-5.42,3.43-9.51,4.4-12.24-.06,0-.47,.06-1.23,.17s-1.32,.21-1.7,.28c-1.27,.23-2.42,.02-3.46-.62-1.04-.64-1.72-1.7-2.05-3.18-.29-1.36-.12-2.76,.5-4.2s1.5-2.27,2.65-2.47c6.6-1.16,13.07-1.77,19.43-1.85Z"/><path class="cls-1" d="M204.32,16.32c.73-1.88,1.87-2.78,3.42-2.68,1.33,.05,2.46,.75,3.39,2.11,1.14,1.63,1.42,3.42,.84,5.35-.06,.18-.13,.35-.19,.53-.87,2.26-2.18,5.64-3.94,10.13-1.75,4.5-3.07,7.88-3.94,10.14-.73,1.88-1.87,2.79-3.42,2.71-1.31-.08-2.44-.78-3.39-2.11-1.14-1.61-1.42-3.38-.84-5.31,.06-.2,.12-.39,.19-.56,.87-2.26,2.18-5.65,3.94-10.15,1.75-4.51,3.07-7.89,3.94-10.15Zm12.76-13.07c.27,.63,.39,1.29,.37,2,.02,.7-.1,1.38-.37,2.03-.19,.68-.49,1.24-.9,1.7-.31,.38-.62,.67-.93,.87l-.03,.04s-.04,.04-.06,.04c-.1,.08-.27,.17-.5,.28s-.4,.19-.53,.24c-.04,.03-.08,.04-.12,.04-.13,.03-.32,.06-.58,.09-.26,.04-.45,.07-.58,.09h-.09c-1.39,0-2.53-.58-3.42-1.73-.5-.6-.86-1.37-1.09-2.3-.02-.15-.05-.38-.08-.7-.03-.31-.06-.55-.08-.7,0-.95,.2-1.83,.59-2.64,.08-.13,.2-.31,.34-.55,.15-.24,.25-.41,.31-.51,.37-.5,.84-.87,1.4-1.09,.52-.33,1.08-.48,1.68-.45,.21,0,.36,.01,.47,.04,.04,0,.08,0,.12-.02,.04-.01,.08-.02,.12-.02,.79,0,1.51,.24,2.18,.72,.1,.1,.25,.25,.44,.43,.19,.19,.33,.32,.44,.39,.42,.45,.72,1.02,.9,1.7Z"/><path class="cls-1" d="M251.57,13.34c.81,.8,1.32,1.78,1.54,2.92s.05,2.41-.51,3.79c-3.2,6.71-5.85,13.49-7.97,20.34-.62,2.03-1.78,3.24-3.49,3.62-1.7,.38-3.14-.09-4.33-1.41s-1.45-3.01-.81-5.07c.91-2.96,1.93-5.97,3.05-9-1.35,1.63-2.59,2.95-3.72,3.94-1.13,.99-2.28,1.58-3.44,1.75-1,.15-1.88,0-2.66-.45-.78-.45-1.41-1.16-1.88-2.13s-.86-1.9-1.14-2.79-.54-1.94-.76-3.15l-.09-.56c-.73,1.88-1.82,4.73-3.27,8.55s-2.54,6.67-3.27,8.55c-.75,1.93-1.91,2.86-3.49,2.79-1.35-.05-2.51-.75-3.49-2.11-1.18-1.63-1.51-3.45-.97-5.46,.06-.23,.13-.45,.22-.68,1.31-3.39,3.25-8.48,5.84-15.26,2.58-6.78,4.52-11.87,5.81-15.26,.35-.9,.82-1.6,1.42-2.07,.59-.48,1.2-.71,1.82-.7,.62,.01,1.26,.17,1.9,.47,1.33-.05,2.41,.45,3.24,1.51,.35,.45,.65,.93,.89,1.43,.24,.5,.41,1.07,.51,1.7,.1,.63,.18,1.14,.22,1.54,.04,.4,.08,1.02,.11,1.87s.06,1.43,.08,1.75c.14,2.26,.33,4.13,.56,5.61,0,.05,.02,.15,.06,.28,.04,.14,.07,.26,.09,.36,.41-.5,1.05-1.29,1.9-2.35s1.48-1.84,1.9-2.32c2.93-3.42,5.59-6.71,8-9.87,.75-.98,1.59-1.54,2.54-1.68,.94-.14,1.78,.09,2.52,.7,.74,.6,1.35,1.36,1.85,2.28,.5,.92,.71,1.97,.64,3.16-.07,1.19-.48,2.27-1.23,3.22-.02,.03-.05,.06-.09,.09-.04,.04-.07,.07-.09,.09Z"/><path class="cls-1" d="M279.11,3.51c2.43,.78,4.38,2.35,5.87,4.71,1.48,2.36,2.23,5.07,2.23,8.14s-.8,6.11-2.41,8.91-3.63,5.09-6.05,6.88-5.04,3.18-7.83,4.18c-2.79,1.01-5.42,1.46-7.89,1.36-.66,1.91-1.15,3.35-1.46,4.33-.62,1.96-1.76,3.12-3.42,3.49-1.66,.36-3.06-.09-4.2-1.38-1.14-1.28-1.39-2.91-.75-4.9,2.72-8.51,5.68-16.49,8.87-23.92-.93-.63-1.65-1.71-2.15-3.24-.02-.05-.04-.1-.06-.15-.02-.05-.03-.1-.03-.15-.33-1.03-.29-2.13,.14-3.32,.43-1.18,1.04-2.06,1.85-2.64,2.12-1.53,4.94-2.51,8.47-2.92,3.53-.41,6.47-.21,8.84,.62Zm-1.03,15.07c.37-1.08,.51-1.98,.42-2.69-.09-.72-.44-1.28-1.03-1.7-.59-.41-1.27-.7-2.02-.85-.76-.15-1.61-.21-2.57-.19-2.2,4.7-4.14,9.18-5.82,13.45,2.43-.63,4.68-1.64,6.76-3.03,2.08-1.39,3.5-3.06,4.27-4.99Z"/><path class="cls-1" d="M312.82,6.94c1-1.83,2.37-2.66,4.11-2.47,1.74,.19,2.98,1.06,3.72,2.62,.74,1.56,.7,3.33-.11,5.31l-.47,.9c-.06,.8-.35,1.61-.87,2.41-.19,.33-.48,.79-.87,1.39-.39,.6-.7,1.07-.9,1.39-3.98,8.26-7.12,17.09-9.4,26.49-.23,.9-.59,1.66-1.07,2.28s-1.03,1.02-1.62,1.22c-.59,.2-1.22,.29-1.88,.26-.66-.03-1.28-.23-1.84-.6s-1.06-.84-1.49-1.39-.72-1.24-.84-2.05-.08-1.69,.12-2.62c.02-.05,.04-.13,.06-.25,.02-.11,.04-.21,.06-.28-1.85,.78-3.69,.87-5.54,.26-8.78-2.86-8.36-14.38,1.25-34.55,.39-.83,.89-1.47,1.49-1.92,.6-.45,1.21-.68,1.82-.7,.61-.01,1.23,.1,1.85,.34,.62,.24,1.17,.63,1.65,1.17,.48,.54,.86,1.14,1.15,1.79s.42,1.41,.39,2.26c-.03,.85-.24,1.7-.64,2.52-2.03,4.27-3.58,8.14-4.64,11.6-.06,.18-.24,.68-.54,1.53-.3,.84-.52,1.55-.67,2.13s-.22,1.12-.22,1.62c-.02,1,.02,1.53,.13,1.58,.1,.05,.46-.24,1.06-.87,.13-.13,.22-.23,.28-.3,.81-.83,1.6-1.72,2.37-2.68,.77-.95,1.6-2.12,2.49-3.5,.89-1.38,1.56-2.42,2.01-3.13,.45-.7,1.21-1.98,2.29-3.82,1.08-1.85,1.73-2.96,1.96-3.33,1.1-2.34,2.22-4.55,3.36-6.63Z"/><path class="cls-1" d="M333.08,31.99c1.78-.45,3.25,.15,4.39,1.81,.95,1.38,1.34,2.94,1.15,4.67-.19,1.88-1.03,3.13-2.52,3.73-.21,.1-.43,.18-.65,.23-4.84,1.18-9.6,1.76-14.29,1.73-1.39-.03-2.58-.77-3.58-2.22s-1.23-3-.72-4.63c2.01-6.48,4.11-13.04,6.29-19.67,.17-.5,.48-1.51,.95-3.03,.47-1.52,.83-2.65,1.09-3.39,.26-.74,.63-1.7,1.11-2.88s.99-2.21,1.53-3.09,1.13-1.68,1.78-2.41c.79-.9,1.68-1.4,2.66-1.49,.99-.09,1.85,.17,2.6,.77,.75,.6,1.36,1.35,1.85,2.24s.67,1.91,.56,3.05-.57,2.17-1.35,3.07c-.89,1.03-1.66,2.3-2.29,3.82-.63,1.52-1.29,3.52-1.96,5.99-.68,2.47-1.11,4-1.29,4.58-.29,.9-.72,2.25-1.29,4.03-.57,1.78-1,3.13-1.29,4.03,1.89-.25,3.65-.56,5.29-.94Z"/></g></g></svg>