<?xml version="1.0" encoding="UTF-8"?><svg id="Layer_1" xmlns="http://www.w3.org/2000/svg" viewBox="0 0 426.84 308.57"><defs><style>.cls-1{fill:#1a171b;}</style></defs><path class="cls-1" d="M105.71,125.96c70.02,15.85,138.61,38.05,209.52,49.91,20.19,3.38,40.53,5.92,60.96,7.32,9.63,.66,9.59-14.34,0-15-70.93-4.87-139.52-24.49-208-42.3-19.43-5.05-38.91-9.96-58.49-14.39-9.4-2.13-13.41,12.33-3.99,14.46h0Z"/><path class="cls-1" d="M364.46,102.39c-80.61,27.61-162.4,51.75-245.08,72.35-23.51,5.86-47.09,11.42-70.73,16.71-9.42,2.11-5.43,16.57,3.99,14.46,83.33-18.65,165.87-40.8,247.3-66.5,22.93-7.24,45.77-14.77,68.52-22.56,9.08-3.11,5.18-17.6-3.99-14.46h0Z"/></svg>