<?xml version="1.0" encoding="UTF-8"?><svg id="Layer_1" xmlns="http://www.w3.org/2000/svg" viewBox="0 0 426.84 308.57"><defs><style>.cls-1{fill:#1a171b;}</style></defs><path class="cls-1" d="M196.78,37.02c.12,21.74-1.03,43.53-1.88,65.24-.88,22.54-1.63,45.13-3.22,67.63-1.55,21.86-1.81,43.86,5.37,64.87,3.1,9.08,17.6,5.18,14.46-3.99-9.47-27.7-4.83-57.22-3.45-85.82,1.25-25.97,2.29-51.96,3.09-77.95,.31-9.99,.68-19.99,.63-29.99-.05-9.65-15.05-9.67-15,0h0Z"/><path class="cls-1" d="M146.89,229.55c9.63,10.36,19.6,20.4,29.94,30.05,5.16,4.82,10.37,9.63,15.77,14.19s12.23,7.67,18.32,2.3c4.74-4.18,8.39-10.52,12.18-15.55,4.62-6.12,9.18-12.28,13.69-18.48,8.64-11.88,17.08-23.92,25.34-36.08,5.44-8.01-7.55-15.52-12.95-7.57-7.9,11.63-15.96,23.14-24.21,34.52-4.13,5.69-8.3,11.35-12.51,16.97-1.92,2.56-3.84,5.11-5.78,7.65-1.62,2.13-3.57,6.06-5.93,7.35l3.79-1.02c-1.67,.16-4.26-3.24-5.5-4.34-2.07-1.83-4.13-3.68-6.18-5.54-4.09-3.72-8.13-7.51-12.12-11.35-7.97-7.68-15.71-15.59-23.24-23.7-6.59-7.09-17.18,3.54-10.61,10.61h0Z"/></svg>