<?xml version="1.0" encoding="UTF-8"?><svg id="Layer_1" xmlns="http://www.w3.org/2000/svg" viewBox="0 0 426.84 308.57"><defs><style>.cls-1{fill:#1a171b;}</style></defs><path class="cls-1" d="M24.64,120.41c4.49,18.25,4.25,37.43,5.11,56.11,.89,19.38,1.78,38.76,2.67,58.14,.44,9.61,15.44,9.67,15,0-.92-20.04-1.84-40.07-2.76-60.11-.89-19.38-.89-39.18-5.55-58.12-2.31-9.37-16.78-5.4-14.46,3.99h0Z"/><path class="cls-1" d="M19.1,128.84c18.62-.63,37.3-.2,55.92,.04,29.32,.38,58.65,.97,87.97,1.56,61.37,1.24,122.74,2.8,184.12,3.34,16.95,.15,34.72,1.46,51.6-.67,4.02-.51,7.5-3.08,7.5-7.5,0-3.66-3.45-8.01-7.5-7.5-14.2,1.79-29.08,.82-43.34,.74-27.19-.17-54.38-.66-81.56-1.17-63.15-1.18-126.28-2.75-189.43-3.67-21.73-.32-43.54-.91-65.27-.17-9.63,.33-9.67,15.33,0,15h0Z"/><path class="cls-1" d="M29.14,241.24c13.03,2.14,26.95,1.12,40.08,1.11,26.41,0,52.82-.32,79.23-.66,63.24-.81,126.48-1.96,189.71-2.97,23.19-.37,46.38-.81,69.57-.89,9.65-.03,9.67-15.03,0-15-49.66,.16-99.34,1.38-148.99,2.19-60.04,.99-120.08,2.1-180.13,2.3-10.5,.03-21,.05-31.5-.11-3.34-.05-6.69-.12-10.02-.26-1.14-.05-2.28-.12-3.42-.19-1.76-.1-2.54-.33-.55,0-9.44-1.55-13.5,12.9-3.99,14.46h0Z"/><path class="cls-1" d="M384.14,118.76c.19,38.62,2.55,77.19,7.07,115.54,.47,4.02,3.11,7.5,7.5,7.5,3.69,0,7.98-3.45,7.5-7.5-4.51-38.36-6.87-76.92-7.07-115.54-.05-9.65-15.05-9.67-15,0h0Z"/></svg>