<?xml version="1.0" encoding="UTF-8"?><svg id="Layer_1" xmlns="http://www.w3.org/2000/svg" viewBox="0 0 290.35 308.57"><defs><style>.cls-1{fill:#1a171b;}</style></defs><path class="cls-1" d="M99.9,90.56c-2.29-.26-3.82-3.41-4.22-5.35-.73-3.59,1.3-7.22,3.52-9.89,5.52-6.64,14.17-10.3,22.45-11.93,17.03-3.36,36.45,2.63,48.75,14.81,6.36,6.29,10.86,14.67,11.24,23.74,.16,3.72-.16,7.89-1.78,11.31-1.79,3.78-5.6,4.58-9.45,5.15-9.37,1.39-18.36,2.3-27.33,5.63-9.27,3.45-17.84,8.18-25.61,14.29-3.93,3.09-8.14,6.44-9.54,11.47-1.51,5.4,.76,10.13,3.6,14.6,6.25,9.85,10.13,20.6,10.9,32.29,.63,9.58,15.64,9.65,15,0-.82-12.45-4.11-24.47-10.22-35.39-1.2-2.14-3.67-4.66-4.36-7.04-.59-2.04-.73,.35,.34-1.22,.46-.67,1.79-1.6,2.32-2.04,4.56-3.83,9.71-7,15.03-9.65,10.37-5.17,21.1-6.67,32.4-8.28,11.56-1.64,19.84-8,22.57-19.66,5.38-23.01-8.61-44.91-28.12-56.1-19.41-11.13-44.36-13.34-64.63-3.21-10.37,5.18-20.1,14.32-21.88,26.24-1.87,12.48,6.54,23.8,19.02,25.23,4.03,.46,7.5-3.78,7.5-7.5,0-4.44-3.46-7.04-7.5-7.5h0Z"/><path class="cls-1" d="M131.62,237.92c4.45,.63,8.38,.37,12.84,.18,1.42-.06,5.6-.61,6.53,.91,2.94,4.81-12.3,6.83-14.31,6.93-3.04,.16-6.59,.39-9.5-.65s-2.4-1.5-.84-4.55c2.86-5.58,7.85-9.63,13.33-12.44,8.59-4.41,1.01-17.36-7.57-12.95-10.03,5.16-21.69,16.17-21.94,28.31-.31,15.19,16.6,18.15,28.42,17.15,12.32-1.05,27.75-6.75,27.55-21.62-.09-6.81-4.65-12.31-10.85-14.66-6.65-2.52-12.95-.14-19.66-1.08-4.04-.57-8.01,.99-9.23,5.24-1,3.51,1.23,8.66,5.24,9.23h0Z"/></svg>