<?xml version="1.0" encoding="UTF-8"?><svg id="Layer_1" xmlns="http://www.w3.org/2000/svg" viewBox="0 0 426.84 308.57"><defs><style>.cls-1{fill:#1a171b;}</style></defs><path class="cls-1" d="M171.67,31.47c-16.18-1.34-32.43-1.45-48.61-.15-6.51,.52-13.95,.54-20.17,2.66-7.82,2.67-10.24,9.57-10.93,17.12-2.82,30.72,2.16,61.95,6.35,92.3,2.07,14.96,4.1,29.94,5.27,45.01,.58,7.51,.96,15.04,1.01,22.57s-.71,14.59-.81,21.88c-.08,6.03,2.46,12.3,8.9,13.88,3.39,.83,7.11,.39,10.55,.3,4.57-.11,9.15-.25,13.72-.4,15.68-.53,31.35-1.29,47.01-2.29,35.88-2.29,71.68-5.83,107.32-10.56,4.01-.53,7.5-3.07,7.5-7.5,0-3.64-3.46-8.04-7.5-7.5-28.84,3.83-57.77,6.88-86.78,9.12-14.66,1.13-29.35,2.05-44.04,2.77-6.53,.32-13.06,.59-19.59,.83-3.59,.13-7.19,.25-10.78,.35-1.63,.05-3.27,.09-4.9,.14-1.93,.05-6.15-.65-7.84,.19h-1.35c.94,.74,1.88,1.48,2.82,2.22,.05-.03,.02-2.52,.03-2.72,.16-3.14,.44-6.27,.56-9.41,.29-7.52,.21-15.06-.13-22.58-.63-13.85-2.17-27.63-3.95-41.37-3.57-27.5-8.24-54.96-8.93-82.75-.19-7.53-.08-15.07,.42-22.59,.06-.87-.04-3.56,.54-4.38,.62-.88,2.8-.94,4.07-1.12,3.85-.54,7.75-.86,11.62-1.16,16.19-1.29,32.43-1.19,48.61,.15,9.62,.8,9.57-14.21,0-15h0Z"/><path class="cls-1" d="M270.65,166.42c15.21,6.91,30.12,14.47,44.64,22.74,6.99,3.98,13.89,8.11,20.7,12.4,1.77,1.11,3.58,2.63,5.48,3.49,.52,.32,1.03,.67,1.52,1.04-.52-1.64-.73-1.68-.63-.12-1.48,2.98-2.26,5.65-4.61,8.29-10.38,11.67-23.4,21.71-35.64,31.35-12.9,10.16-26.41,19.53-40.3,28.27-8.15,5.13-.63,18.11,7.57,12.95,16.02-10.08,31.42-21.07,46.2-32.89,7.14-5.71,14.11-11.62,20.9-17.73,6.2-5.58,13.19-11.28,17.33-18.66s5.63-16.87-1.29-22.98-15.58-10.16-23.22-14.65c-16.54-9.72-33.6-18.52-51.07-26.46-3.71-1.69-8.03-1.03-10.26,2.69-1.92,3.2-.99,8.59,2.69,10.26h0Z"/></svg>