<?xml version="1.0" encoding="UTF-8"?><svg id="Layer_1" xmlns="http://www.w3.org/2000/svg" viewBox="0 0 426.84 308.57"><defs><style>.cls-1{fill:#1a171b;}</style></defs><path class="cls-1" d="M105.37,102.11c39.6,6.61,79.75,10.21,119.6,14.87,39.23,4.58,79.32,8.1,117.85,17.15,11.94,2.8,27.84,6.07,31.65,19.7,3.01,10.78-4.7,19.56-11.3,27.01-1.14,1.29,1.46-.83-.32,.23-.65,.39-1.27,.83-1.92,1.22-1.51,.9-3.09,1.7-4.69,2.44-.67,.31-3.4,1.47-1.41,.65-1.01,.42-2.03,.82-3.05,1.21-2.26,.86-4.55,1.65-6.85,2.4-26.03,8.46-54.06,12.84-80.73,16.04-34.05,4.09-68.51,6.06-102.8,4.83-15.46-.55-31.07-1.77-45.65-4.22-6.87-1.15-13.71-2.57-20.44-4.41-3.08-.84-6.15-1.77-9.17-2.8-1.44-.49-2.87-1.01-4.29-1.56-.64-.25-1.28-.5-1.91-.76-1.55-.62,.11,.07-.99-.42-4.89-2.17-9.57-4.72-13.91-7.84-1.17-.84,.83,.7-.27-.2-.5-.41-1-.81-1.48-1.24-.88-.76-1.73-1.56-2.55-2.39s-1.53-1.66-2.27-2.51c-.97-1.12,.16,.25-.09-.09-.34-.48-.69-.95-1.01-1.44-.59-.9-1.15-1.83-1.65-2.78-.23-.44-.44-.89-.66-1.33-.76-1.53,.3,.93-.11-.25-.71-2.06-1.28-4.1-1.63-6.25,.35,2.17-.04-1.13-.06-1.86-.03-1.05,.04-2.09,.07-3.14-.07,2.13,.02,.51,.25-.55,.44-2.05-.72,.74,.46-1.06,.45-.69,.87-1.41,1.33-2.09,.66-.98-1.08,1.17,.06-.03,.37-.39,.71-.8,1.09-1.19,.68-.7,1.39-1.37,2.12-2.01,.45-.4,.92-.77,1.39-1.15,0,0-.77,.53,.42-.29,4.55-3.14,9.35-5.76,14.38-8.04,4.84-2.2,11.84-4.78,18.15-6.84,7.59-2.47,15.29-4.61,23.03-6.56,35.76-9.01,72.46-14.43,109.08-18.46,31.12-3.42,62.62-6.25,93.96-5.87,4.51,.05,9.03,.19,13.52,.6,9.61,.87,9.55-14.14,0-15-28.1-2.54-57.22,.49-85.2,3.03-39.46,3.58-78.96,8.77-117.71,17.13-16.41,3.54-32.8,7.64-48.58,13.39-11.75,4.28-23.99,9.33-33.42,17.79-17.82,16-7.35,40.79,9.13,53.12,22.07,16.5,53.1,20.5,79.7,22.99,35.17,3.29,70.78,2.2,105.92-.97,31.6-2.85,63.49-7.14,94.21-15.27,10.03-2.66,20.25-5.7,29.5-10.49,15.46-8,26.77-27.4,23.29-44.74-5.26-26.26-35.95-31.27-58.06-35.32-20.68-3.79-41.55-6.53-62.4-9.19-45.77-5.83-91.7-10.37-137.44-16.4-7.31-.96-14.79-2.03-22.15-3.25-9.44-1.58-13.5,12.88-3.99,14.46h0Z"/></svg>