<?xml version="1.0" encoding="UTF-8"?><svg id="Layer_1" xmlns="http://www.w3.org/2000/svg" viewBox="0 0 290.35 308.57"><defs><style>.cls-1{fill:#1a171b;}</style></defs><path class="cls-1" d="M157.2,66.44c-2.73-6.53-8.36-10.69-15.68-10.28s-13.15,5.78-17.27,11.72c-8.74,12.61-13.23,28.03-14.67,43.18-3.04,32.11,10.19,62.89,29.82,87.62,3.83,4.82,10.82,1.39,12.54-3.31,16.21-44.48,18.23-93.5,6.09-139.24-2.47-9.32-16.95-5.37-14.46,3.99,11.5,43.32,9.25,89.18-6.09,131.26,4.18-1.1,8.36-2.21,12.54-3.31-14.35-18.08-24.73-40.37-25.75-63.69-.5-11.32,1.06-22.51,4.88-33.18,1.83-5.11,4.32-9.99,7.27-14.54,1.15-1.77,2.63-4.24,4.66-5.1,1.73-.74,2.3,.37,1.68-1.13,1.56,3.72,4.97,6.43,9.23,5.24,3.52-.98,6.82-5.45,5.24-9.23h0Z"/><path class="cls-1" d="M142.22,234.63c3.79,.19,7.44,1.43,10.43,3.83,1.31,1.05,1.99,2.03,2.74,3.5,.06,.99,.18,.72,.38-.8-.67,.4-1.38,.7-2.15,.89-4.89,1.66-15.56,1.35-18.24-4.1l1.02,3.79c-.31-2.31,6.79-5.69,9.35-6.56,9.09-3.09,5.19-17.58-3.99-14.46-9.2,3.12-25.23,12.8-19.34,24.81,4.59,9.37,18.68,13.17,28.23,12.27,10.91-1.03,22.98-7.66,18.97-20.45-3.56-11.35-16.39-17.15-27.41-17.71-9.65-.49-9.62,14.51,0,15h0Z"/></svg>