<?xml version="1.0" encoding="UTF-8"?><svg id="Layer_1" xmlns="http://www.w3.org/2000/svg" viewBox="0 0 426.84 308.57"><defs><style>.cls-1{fill:#1a171b;}</style></defs><path class="cls-1" d="M61.52,191.98c19.99,4.23,40.71,2.08,60.9,.63s41.7-3.45,62.52-5.53c41.6-4.15,83.23-8.28,124.7-13.6,23.5-3.02,46.95-6.45,70.28-10.57,9.49-1.68,5.47-16.14-3.99-14.46-40.14,7.1-80.59,12.07-121.11,16.43-40.78,4.39-81.6,8.78-122.49,11.99-21.74,1.71-45.27,5.22-66.83,.65-9.42-1.99-13.44,12.46-3.99,14.46h0Z"/><path class="cls-1" d="M18.77,240.36c45.24-4.34,90.15-12.46,134.8-20.79,50.08-9.33,99.98-19.59,149.89-29.73,23.23-4.72,46.46-9.44,69.76-13.85,9.47-1.79,5.46-16.25-3.99-14.46-44.11,8.35-88.04,17.62-132.05,26.48-49.67,10-99.41,19.82-149.43,27.97-22.91,3.73-45.88,7.15-68.99,9.37-9.52,.91-9.62,15.92,0,15h0Z"/></svg>