<?xml version="1.0" encoding="UTF-8"?>
<svg id="Layer_1" xmlns="http://www.w3.org/2000/svg" viewBox="0 0 290.35 308.57">
    <defs>
        <style>.cls-1{fill:#1a171b;}</style>
    </defs>
    <path class="cls-1"
        d="M62.96,124.07c10.31-30.59,20.63-61.17,30.94-91.76,3.09-9.17-11.39-13.1-14.46-3.99-10.31,30.59-20.63,61.17-30.94,91.76-3.09,9.17,11.39,13.1,14.46,3.99h0Z" />
    <path class="cls-1"
        d="M112.21,136.03c34.04-26.62,71.24-49.13,110.43-67.29,8.75-4.06,1.14-16.99-7.57-12.95-40.44,18.74-78.37,42.19-113.46,69.64-3.22,2.52-2.59,7.96,0,10.61,3.12,3.18,7.43,2.48,10.61,0h0Z" />
    <path class="cls-1"
        d="M138.29,169.88c36.78-1.22,73.57-1.65,110.37-1.3,9.65,.09,9.66-14.91,0-15-36.8-.35-73.59,.08-110.37,1.3-9.63,.32-9.67,15.32,0,15h0Z" />
    <path class="cls-1"
        d="M139.74,221.26c15.83,19.04,29.96,39.39,42.43,60.78,4.86,8.34,17.83,.79,12.95-7.57-13.11-22.5-28.13-43.79-44.77-63.82-6.18-7.43-16.74,3.23-10.61,10.61h0Z" />
</svg>