<?xml version="1.0" encoding="UTF-8"?><svg id="Layer_1" xmlns="http://www.w3.org/2000/svg" viewBox="0 0 426.84 308.57"><defs><style>.cls-1{fill:#1a171b;}</style></defs><path class="cls-1" d="M68.39,260.31c15.84-38.99,31.69-77.98,47.53-116.97-4.18,1.1-8.36,2.21-12.54,3.31,30.13,26.68,42.04,68.16,73.53,93.69,3.56,2.88,9.31,3.12,11.78-1.52,7.01-13.19,14.43-26.17,22.29-38.88s15.37-25.43,24.55-36.77c2.74-3.38,6.65-7.92,11.4-5.8,5.36,2.39,9.42,9.15,13,13.51,10.29,12.52,20.57,25.03,30.86,37.55,2.86,3.48,9.92,2.67,11.78-1.52,12.75-28.75,25.5-57.51,38.26-86.26,1.65-3.73,1.06-8.02-2.69-10.26-3.18-1.9-8.62-1-10.26,2.69-12.75,28.75-25.5,57.51-38.26,86.26l11.78-1.52c-11.76-14.3-23.41-28.7-35.27-42.92-4.48-5.37-9.65-10.67-16.64-12.53s-13.99,.58-19.49,5.07-9.53,10.92-13.58,16.79c-4.95,7.17-9.76,14.44-14.43,21.8-9.34,14.72-18.07,29.81-26.26,45.21l11.78-1.52c-31.4-25.46-43.36-66.98-73.53-93.69-4.54-4.02-10.38-2-12.54,3.31-15.84,38.99-31.69,77.98-47.53,116.97-1.54,3.78,1.67,8.21,5.24,9.23,4.28,1.22,7.71-1.5,9.23-5.24h0Z"/><path class="cls-1" d="M307.81,101.68c10.75-6.15,21.65-12.03,32.72-17.57,5.39-2.7,10.82-5.33,16.29-7.88s11.14-5.81,16.94-7.42h-3.99c-6.12-1.56-2.46-5.3-3.55-1.59-.41,1.39-.39,3.02-.52,4.46-.27,2.89-.41,5.8-.43,8.71-.03,5.62,.49,11.21,1.31,16.77,1.68,11.34,5.35,22.17,10.47,32.41,4.32,8.64,17.26,1.05,12.95-7.57-5.65-11.3-9-23.74-9.62-36.37-.3-6.09,.09-12.09,.81-18.13,.64-5.41-1.13-11.43-7-13.02s-12.93,3.33-18.02,5.64c-6.36,2.88-12.68,5.86-18.95,8.94-12.54,6.16-24.86,12.75-36.98,19.69-8.38,4.8-.83,17.76,7.57,12.95h0Z"/></svg>