<?xml version="1.0" encoding="UTF-8"?><svg id="Layer_1" xmlns="http://www.w3.org/2000/svg" viewBox="0 0 426.84 308.57"><defs><style>.cls-1{fill:#1a171b;}</style></defs><path class="cls-1" d="M49.62,221.73c12.01-39.91,22.09-80.36,30.22-121.24l-13.71,1.79c10.09,17.05,15.79,36.57,22.56,55.08,7.1,19.41,14.19,38.82,21.29,58.24,2.35,6.42,12.74,7.8,14.46,0,8.34-37.8,19.4-74.95,33.1-111.16-4.57,.6-9.14,1.19-13.71,1.79,16.43,31.39,32.86,62.77,49.3,94.16,3.66,6.98,13.57,3.2,13.98-3.79,1.84-31.33,8.91-62.06,20.62-91.17-3.08,1.75-6.15,3.49-9.23,5.24,2.36,.97,3.62,5.61,4.44,7.77,2.08,5.47,4.11,10.97,6.12,16.46,3.92,10.69,7.76,21.41,11.53,32.15,7.55,21.48,14.87,43.05,22.19,64.61,2.8,8.24,13.94,6.4,14.73-1.99,5.13-54.59,18.59-108.23,39.43-158.93l-13.71,1.79c6.19,10.07,7.29,22.17,9.42,33.57,2.42,12.9,5.29,25.72,8.6,38.42,6.62,25.42,15.06,50.33,25.11,74.58,3.15,7.61,14.19,6.93,14.73-1.99,2.52-41.59,12.52-82.7,29.58-120.73,1.67-3.72,1.05-8.02-2.69-10.26-3.19-1.91-8.61-1-10.26,2.69-18.2,40.58-28.94,83.89-31.62,128.3l14.73-1.99c-10.3-24.84-18.88-50.36-25.58-76.4-3.27-12.71-6.1-25.54-8.47-38.45-2.24-12.2-3.97-24.54-10.59-35.31-3.67-5.96-11.33-3.99-13.71,1.79-21.38,52.01-34.7,106.94-39.97,162.92l14.73-1.99c-8.16-24.03-16.31-48.06-24.79-71.97-4.13-11.65-8.34-23.27-12.66-34.85-3.74-10.02-6.64-20.27-17.32-24.65-4.04-1.66-7.87,1.86-9.23,5.24-12.21,30.36-19.24,62.5-21.15,95.16,4.66-1.26,9.32-2.52,13.98-3.79-16.43-31.39-32.86-62.77-49.3-94.16-3.25-6.21-11.59-3.81-13.71,1.79-13.7,36.21-24.75,73.35-33.1,111.16h14.46c-7.32-20.03-14.64-40.06-21.96-60.09s-12.99-39.22-23.4-56.82c-3.1-5.24-12.41-4.73-13.71,1.79-8.13,40.87-18.21,81.33-30.22,121.24-2.79,9.26,11.69,13.22,14.46,3.99h0Z"/></svg>