<?xml version="1.0" encoding="UTF-8"?><svg id="Layer_1" xmlns="http://www.w3.org/2000/svg" viewBox="0 0 426.84 308.57"><defs><style>.cls-1{fill:#1a171b;}</style></defs><path class="cls-1" d="M306.17,23.03c-23.24,36.53-48.29,72.01-76.83,104.62-19.15,21.87-39.91,42.15-61.74,61.33-10.39,9.13-20.95,18.05-31.35,27.16-7.28,6.37,3.37,16.94,10.61,10.61,19.39-16.98,39.2-33.47,57.75-51.38,24.98-24.11,47.63-50.43,68.55-78.11,16.28-21.54,31.47-43.88,45.96-66.65,5.2-8.17-7.78-15.7-12.95-7.57h0Z"/><path class="cls-1" d="M116.81,171.94c-11.06,23.53-22.42,46.92-34.08,70.15-1.77,3.52-1.06,8.24,2.69,10.26,7.75,4.18,16.17,4.95,24.79,5.75,9.06,.84,18.15,1.45,27.24,1.82,18.84,.78,37.71,.54,56.53-.63,9.59-.59,9.66-15.6,0-15-17.52,1.09-35.08,1.38-52.63,.78-8.45-.29-16.89-.78-25.31-1.46-7.56-.61-16.22-.52-23.05-4.2l2.69,10.26c11.66-23.24,23.02-46.62,34.08-70.15,4.08-8.69-8.84-16.31-12.95-7.57h0Z"/></svg>