<?xml version="1.0" encoding="UTF-8"?><svg id="Layer_2" xmlns="http://www.w3.org/2000/svg" viewBox="0 0 208.58 250.43"><defs><style>.cls-1{fill:#1a171b;}</style></defs><g id="Layer_1-2"><path class="cls-1" d="M7.23,15.54c22.45-.89,45.55-1.94,67.23,5,13.98,4.47,32.65,14.53,37.67,28.47,4.62,12.82,5.3,27.37,4.43,40.85s-4.33,24.12-16.73,31.74c-9.64,5.92-18.57,2.61-25.01-5.83-3.23-4.23-5.27-8.66-6.52-13.68-.69-2.77-.78-3.03-.75-5.87,.01-1.19,.21-2.27,.11-1.8,.12-.52,.2-1.06,.4-1.55,.67-1.69-1.13,1.79,.44-.88,6.83-11.59,20.14-16.9,32.65-19.97,11.38-2.79,23.33-4.09,34.97-1.39,11.13,2.58,18.88,8.92,23.39,19.47,4.27,9.99,6.32,21.37,7.07,32.16,1.64,23.58-3.34,47.24-14.71,67.98-4.64,8.47,8.31,16.05,12.95,7.57,11.77-21.48,17.75-45.97,17.01-70.47-.68-22.28-5.48-51.03-25.42-64.41-14.58-9.78-33.54-9.89-50.25-7.2-16.04,2.58-33.76,8.44-44.93,20.85-5.05,5.61-8.6,11.98-8.68,19.64-.07,6.64,1.93,13.18,4.68,19.15,5.89,12.8,17.91,24.38,32.76,24.42,16.82,.04,33.58-14.98,38.45-30.49,5.04-16.05,4.12-34.71,1.41-51.09-1.25-7.54-3.15-15.71-7.57-22.08-7.17-10.35-17.78-18.52-29-24.05C66.49-1.15,36.37-.61,7.23,.54-2.39,.92-2.44,15.92,7.23,15.54h0Z"/><path class="cls-1" d="M115.72,186.32c-.87,19.95,2.37,39.94,9.59,58.56,1.44,3.71,5.02,6.51,9.23,5.24,25.12-7.58,48.99-18.89,70.67-33.68,7.93-5.41,.43-18.41-7.57-12.95-20.66,14.1-43.14,24.94-67.09,32.17l9.23,5.24c-6.8-17.52-9.87-35.79-9.05-54.57,.42-9.65-14.58-9.63-15,0h0Z"/></g></svg>