<?xml version="1.0" encoding="UTF-8"?><svg id="Layer_1" xmlns="http://www.w3.org/2000/svg" viewBox="0 0 426.84 308.57"><defs><style>.cls-1{fill:#1a171b;}</style></defs><path class="cls-1" d="M215.26,97.32c-9.61-21.14-27.74-38.21-50.1-45.06-21.24-6.51-44.56-1.96-61.26,12.83-17.96,15.91-21.65,40.97-15.21,63.25,7.07,24.43,24.59,44.29,40.1,63.8,19.22,24.18,38.86,48.02,58.89,71.53,6.27,7.36,16.84-3.29,10.61-10.61-15.6-18.31-30.97-36.82-46.08-55.54-14.13-17.51-29.64-34.88-40.86-54.47-9.77-17.05-15.93-39.65-5.02-57.7,9.34-15.46,28.42-23.05,45.98-20.66,22.74,3.09,40.78,19.91,50.01,40.21,1.69,3.72,7,4.55,10.26,2.69,3.81-2.17,4.36-6.6,2.69-10.26h0Z"/><path class="cls-1" d="M238.13,114.81c5.82-15.55,16.25-32.91,32.33-37.84,10.82-3.32,22.42-.41,30.57,6.84,4.44,3.95,7.89,8.85,9.63,13.46,2.17,5.76,2.81,11.33,2.1,16.4-1.16,8.35-5.12,14.69-9.95,21.55-8.76,12.47-17.17,25.18-25.4,38-19.2,29.95-37.37,60.54-56.51,90.53-5.21,8.16,7.77,15.69,12.95,7.57,18.62-29.19,36.33-58.94,54.97-88.12,9.23-14.45,18.77-28.68,28.59-42.74,5.39-7.73,9.06-16.23,10.2-25.62,3.87-32.04-26.82-60.25-58.39-53.05-23.61,5.38-37.65,27.92-45.55,49.05-3.39,9.05,11.11,12.96,14.46,3.99h0Z"/></svg>