<?xml version="1.0" encoding="UTF-8"?><svg id="Layer_1" xmlns="http://www.w3.org/2000/svg" viewBox="0 0 426.84 308.57"><defs><style>.cls-1{fill:#1a171b;}</style></defs><path class="cls-1" d="M277.98,90.98c-32.26,35.56-60.04,75.06-82.43,117.53-4.5,8.53,8.44,16.12,12.95,7.57,21.81-41.37,48.66-79.85,80.08-114.49,6.47-7.14-4.1-17.77-10.61-10.61h0Z"/><path class="cls-1" d="M155.6,169.72c11.45,14.15,23.82,27.48,37.07,39.95,7.03,6.61,17.66-3.97,10.61-10.61-13.25-12.47-25.63-25.8-37.07-39.95-2.57-3.17-7.93-2.62-10.61,0-3.15,3.08-2.53,7.48,0,10.61h0Z"/></svg>