<?xml version="1.0" encoding="UTF-8"?><svg id="Layer_1" xmlns="http://www.w3.org/2000/svg" viewBox="0 0 426.84 308.57"><defs><style>.cls-1{fill:#1a171b;}</style></defs><path class="cls-1" d="M301.03,39.86c9.34,17.9,15.49,37.74,15.77,58.04s-5.89,39.87-16.19,57.31c-9.8,16.6-23.22,29.69-41.45,36.59-19.94,7.55-41.7,11.45-62.72,14.59-25.19,3.76-50.74,5.12-76.19,4.49-9.66-.24-9.65,14.76,0,15,24.59,.61,49.13-.78,73.5-4.08,22.98-3.12,46.77-7.15,68.59-15.23,20.74-7.68,36.77-21.1,48.69-39.68,11.89-18.53,19.59-39.98,20.65-62.05,1.22-25.28-6.1-50.3-17.71-72.55-4.47-8.56-17.41-.99-12.95,7.57h0Z"/><path class="cls-1" d="M133.96,157.42c-25.85,17.46-51.7,34.92-77.55,52.38-4.3,2.91-4.68,7.88-1.52,11.78,20.07,24.73,52.31,31.82,81.82,38.54,9.4,2.14,13.41-12.32,3.99-14.46-27.09-6.17-56.74-11.94-75.2-34.68l-1.52,11.78c25.85-17.46,51.7-34.92,77.55-52.38,7.96-5.37,.46-18.37-7.57-12.95h0Z"/></svg>