<svg xmlns="http://www.w3.org/2000/svg" width="1626" height="645" viewBox="0 0 1626 645">
<g>
<path d="M 236.00 643.27 C232.98,641.74 232.46,640.95 232.20,637.44 C232.02,634.94 232.72,631.50 234.02,628.44 C235.19,625.73 237.05,620.80 238.16,617.50 C239.27,614.20 246.61,593.05 254.48,570.50 C288.44,473.13 300.14,434.12 311.58,380.00 C318.93,345.26 321.32,310.67 317.64,292.50 C314.71,278.07 307.93,267.45 297.98,261.69 C289.62,256.86 282.20,255.53 264.25,255.66 C255.31,255.73 248.00,255.57 248.00,255.32 C248.00,254.23 265.28,246.91 271.09,245.54 C300.30,238.65 326.22,255.54 334.74,287.00 C336.18,292.30 336.50,297.65 336.50,316.00 C336.50,343.53 334.65,356.44 323.88,404.00 C319.34,424.08 318.12,433.00 319.93,433.00 C321.82,433.00 329.55,420.04 337.28,403.90 C341.34,395.43 347.11,384.23 350.10,379.00 C353.09,373.77 356.43,367.79 357.52,365.70 C360.39,360.18 366.34,354.37 370.53,352.99 C373.57,351.99 374.89,352.07 378.60,353.49 C387.10,356.73 387.45,360.16 383.05,397.00 C377.39,444.29 375.15,463.56 374.57,470.00 L 373.99 476.50 L 378.61 471.50 C384.05,465.61 390.24,456.37 398.03,442.52 C406.20,428.01 447.73,358.01 456.67,343.70 C494.16,283.67 526.26,243.44 574.13,196.49 C601.29,169.86 625.87,150.13 641.50,142.40 C662.20,132.17 680.82,141.30 683.49,163.00 C684.30,169.56 682.25,186.74 677.88,210.00 C672.64,237.87 664.47,269.14 651.42,311.16 C647.78,322.90 641.67,342.62 637.85,355.00 C625.30,395.66 606.99,448.81 592.03,488.00 C589.20,495.42 585.59,504.88 584.02,509.00 C572.12,540.29 541.34,614.92 537.22,622.50 C534.27,627.92 531.40,629.25 528.62,626.48 C525.05,622.90 526.17,619.01 543.49,575.00 C571.32,504.27 600.76,418.08 627.97,327.62 C637.47,296.04 641.79,281.14 652.49,243.00 C658.67,220.97 662.49,200.34 664.18,179.84 C665.36,165.48 665.33,164.86 663.29,160.66 C660.71,155.35 655.58,152.48 650.40,153.45 C642.67,154.90 611.86,180.97 578.95,213.92 C539.60,253.32 515.96,282.52 481.14,334.74 C451.51,379.17 433.89,408.62 386.58,492.78 C381.24,502.28 375.21,511.80 373.17,513.94 C367.06,520.37 359.52,520.34 354.74,513.87 C352.04,510.23 352.26,505.43 356.52,474.00 C362.17,432.36 364.11,417.04 364.69,409.47 C365.26,402.09 363.44,390.16 361.96,391.64 C361.49,392.11 355.63,404.20 348.94,418.50 C342.25,432.80 335.09,448.10 333.02,452.50 C295.38,532.59 283.83,557.92 265.99,599.41 C256.78,620.82 248.18,639.59 246.88,641.14 C243.77,644.81 240.36,645.48 236.00,643.27 ZM 963.49 587.75 C959.76,584.54 959.44,579.65 961.94,563.97 C975.30,480.26 1001.20,383.30 1031.87,302.24 C1045.62,265.89 1050.68,243.28 1054.44,201.50 C1058.84,152.49 1060.01,138.15 1060.06,132.12 C1060.09,128.48 1060.65,123.97 1061.31,122.10 C1063.62,115.53 1070.43,116.37 1072.84,123.53 C1079.09,142.13 1059.46,290.17 1036.43,398.00 C1024.64,453.22 1000.64,539.92 990.38,564.38 C985.54,575.93 979.24,586.43 976.01,588.33 C971.99,590.71 966.65,590.46 963.49,587.75 ZM 993.55 504.50 C1000.16,484.46 1006.88,458.84 1010.48,440.00 C1013.49,424.24 1016.94,398.99 1016.09,399.01 C1015.34,399.03 1005.82,429.38 1001.39,445.89 C995.11,469.33 988.47,502.01 985.54,524.00 L 985.07 527.50 L 986.51 524.50 C987.30,522.85 990.47,513.85 993.55,504.50 ZM 2.28 511.30 C-1.23,505.95 1.37,483.32 7.51,465.57 C16.22,440.42 43.82,400.67 74.50,369.09 C103.13,339.62 134.97,314.44 176.00,288.82 C192.94,278.24 192.00,278.81 192.00,279.30 C192.00,279.53 185.12,284.91 176.70,291.27 C145.79,314.61 121.05,335.97 97.02,360.05 C64.81,392.33 44.56,417.97 32.71,441.50 C22.23,462.29 17.25,479.18 15.08,501.33 C14.55,506.74 13.58,511.80 12.93,512.58 C12.29,513.36 10.02,514.00 7.90,514.00 C4.82,514.00 3.69,513.46 2.28,511.30 ZM 648.50 469.16 C645.45,467.29 643.59,464.42 642.63,460.09 C641.95,456.99 646.42,434.03 648.47,430.05 C650.25,426.61 655.09,423.73 658.32,424.19 C661.50,424.64 661.56,428.37 658.56,439.36 C657.15,444.54 656.00,449.29 656.00,449.93 C656.00,452.19 660.88,456.00 663.78,456.00 C670.07,456.00 685.10,442.40 689.55,432.68 C690.90,429.72 694.07,419.24 696.60,409.40 C699.12,399.55 705.23,375.98 710.17,357.00 C715.12,338.02 720.75,316.42 722.68,309.00 C724.60,301.58 727.10,294.01 728.21,292.18 C730.35,288.70 737.59,283.26 738.67,284.33 C739.52,285.19 737.32,301.08 734.43,315.00 C731.57,328.73 727.72,343.89 721.51,365.97 C714.37,391.32 712.69,399.19 714.22,400.16 C716.59,401.66 717.88,401.02 724.66,395.00 C733.34,387.30 738.32,385.27 744.41,386.97 C749.84,388.50 753.87,392.53 755.06,397.64 C755.55,399.76 755.96,405.37 755.98,410.10 C755.99,414.83 756.49,420.12 757.10,421.86 C758.38,425.52 761.67,426.78 765.13,424.93 C769.03,422.84 777.77,414.08 788.14,401.87 C799.13,388.91 805.89,383.18 813.88,380.04 C824.61,375.82 830.47,377.99 829.80,385.92 C829.50,389.49 829.49,389.50 823.92,390.00 C811.92,391.08 798.65,405.63 793.50,423.37 C792.57,426.55 792.04,429.37 792.31,429.65 C793.03,430.36 798.21,427.54 801.92,424.41 C803.66,422.95 807.97,418.06 811.49,413.55 C818.19,404.97 824.66,399.59 827.57,400.16 C830.80,400.80 833.10,405.38 833.82,412.57 C834.43,418.80 834.77,419.60 837.23,420.78 C843.16,423.62 851.04,418.74 855.88,409.22 C856.93,407.17 859.66,400.70 861.96,394.84 C866.60,383.00 868.60,380.43 872.42,381.39 C874.28,381.86 875.20,383.03 875.98,385.91 C876.87,389.24 876.66,390.84 874.51,396.78 C871.29,405.70 871.31,408.32 874.63,410.93 C880.42,415.48 886.76,412.79 898.00,401.01 C901.58,397.26 906.24,393.18 908.37,391.94 L 912.23 389.69 L 911.54 392.10 C910.04,397.26 903.94,409.19 900.80,413.10 C895.75,419.38 890.73,421.69 871.34,426.63 C848.72,432.39 835.94,433.38 826.28,430.11 C822.86,428.95 819.49,428.00 818.78,428.01 C818.08,428.01 814.23,430.24 810.24,432.96 C806.24,435.69 801.29,438.38 799.24,438.95 C791.90,440.99 763.32,439.68 753.96,436.87 C751.46,436.12 747.95,433.95 745.86,431.86 C741.79,427.79 740.08,422.05 739.86,411.76 C739.79,408.61 739.14,405.23 738.41,404.26 C737.16,402.59 736.89,402.61 733.29,404.63 C729.22,406.92 722.90,415.63 709.16,437.91 C704.03,446.21 700.18,451.28 697.50,453.25 C687.48,460.62 662.43,471.01 654.70,471.00 C652.94,470.99 650.15,470.17 648.50,469.16 ZM 1085.24 389.75 C1081.91,386.19 1081.00,382.53 1081.00,372.68 C1081.00,359.95 1087.30,334.64 1091.66,329.82 C1093.70,327.57 1098.56,327.42 1099.39,329.58 C1100.53,332.54 1100.00,340.47 1097.97,350.93 C1095.99,361.12 1095.09,376.42 1096.39,377.73 C1097.21,378.54 1105.88,370.12 1110.81,363.72 C1112.84,361.10 1119.45,350.75 1125.50,340.73 C1137.07,321.57 1138.66,319.95 1144.39,321.38 C1148.74,322.47 1149.47,325.56 1148.03,336.72 C1145.59,355.67 1145.58,354.60 1148.13,356.38 C1149.40,357.27 1151.85,358.00 1153.57,358.00 C1158.43,358.00 1173.52,341.89 1182.54,327.07 C1195.17,306.33 1203.64,299.61 1217.03,299.74 C1220.79,299.77 1224.36,300.10 1224.95,300.47 C1225.55,300.84 1223.42,302.45 1220.23,304.04 C1209.07,309.62 1201.51,318.30 1197.01,330.71 C1194.13,338.65 1194.77,342.72 1199.57,346.92 C1205.25,351.92 1213.41,350.84 1229.00,343.02 C1243.80,335.60 1251.36,328.53 1262.32,311.83 C1272.72,296.00 1286.91,284.89 1298.77,283.30 C1302.23,282.84 1303.24,283.15 1305.42,285.33 C1308.59,288.50 1308.92,293.44 1306.07,294.96 C1305.00,295.53 1302.35,296.00 1300.18,296.00 C1295.03,296.00 1285.41,302.30 1280.65,308.80 C1274.99,316.53 1267.86,332.19 1269.33,333.66 C1270.87,335.21 1276.71,332.34 1280.59,328.14 C1295.35,312.14 1301.79,306.00 1303.79,306.00 C1306.89,306.00 1308.81,309.57 1309.91,317.39 C1310.95,324.68 1312.98,328.00 1316.42,328.00 C1319.40,328.00 1328.15,321.86 1331.88,317.15 C1338.32,309.02 1339.23,305.85 1349.38,256.00 C1351.35,246.33 1361.18,199.60 1365.05,181.50 C1369.12,162.49 1370.03,159.82 1373.06,158.13 C1375.26,156.90 1376.02,156.90 1378.56,158.11 C1382.25,159.87 1382.70,162.92 1380.60,171.87 C1379.23,177.73 1370.68,221.12 1357.94,286.93 C1352.66,314.16 1353.09,318.22 1361.48,320.99 C1365.81,322.42 1368.34,321.35 1377.91,314.07 C1386.33,307.66 1388.70,304.47 1396.90,288.50 C1403.50,275.66 1405.24,273.52 1407.95,274.97 C1411.22,276.72 1411.54,280.70 1409.17,290.00 C1406.32,301.14 1406.38,303.37 1409.63,305.93 C1414.64,309.86 1418.33,308.17 1431.40,295.95 C1439.32,288.54 1444.07,280.50 1447.03,269.50 C1448.22,265.10 1449.83,260.49 1450.62,259.25 C1452.43,256.40 1456.32,256.32 1459.09,259.09 C1460.79,260.79 1461.06,261.88 1460.49,264.84 C1460.11,266.85 1459.43,270.98 1458.98,274.00 C1458.53,277.02 1457.45,282.42 1456.59,286.00 C1454.99,292.67 1454.70,299.71 1455.85,303.82 L 1456.51 306.14 L 1460.56 303.21 C1467.55,298.14 1473.38,290.44 1483.60,272.73 C1496.01,251.22 1497.00,250.00 1502.09,250.00 C1507.79,250.00 1510.42,252.93 1509.63,258.37 C1509.29,260.64 1508.51,267.13 1507.88,272.78 C1506.84,282.19 1506.90,283.23 1508.53,285.03 C1512.06,288.93 1515.55,287.66 1524.08,279.36 C1531.52,272.12 1535.54,266.61 1546.35,248.87 C1553.85,236.55 1561.13,231.13 1573.18,228.91 C1580.94,227.48 1593.28,228.53 1589.00,230.26 C1569.40,238.15 1562.29,243.95 1557.19,256.19 C1555.44,260.41 1554.00,265.26 1554.00,266.98 C1554.00,275.70 1562.10,281.10 1571.89,278.92 C1578.04,277.54 1589.40,272.01 1597.72,266.32 C1603.68,262.25 1607.81,258.99 1622.67,246.59 L 1626.16 243.68 L 1624.53 247.59 C1616.28,267.33 1594.63,284.22 1572.66,288.05 C1564.48,289.47 1558.33,288.79 1549.52,285.47 C1545.91,284.11 1541.15,283.00 1538.94,283.00 C1535.30,283.00 1534.14,283.74 1526.32,291.12 C1511.44,305.13 1504.63,306.27 1493.16,296.64 C1490.77,294.64 1488.14,293.00 1487.32,293.00 C1486.49,293.00 1484.62,294.42 1483.16,296.16 C1481.70,297.90 1476.31,303.97 1471.19,309.64 C1459.93,322.11 1456.90,323.58 1449.67,320.08 C1447.19,318.88 1443.52,315.90 1441.51,313.45 L 1437.87 309.01 L 1434.19 311.96 C1428.82,316.27 1422.94,318.00 1410.00,319.09 C1389.15,320.84 1383.82,322.23 1373.20,328.66 C1365.27,333.45 1362.80,334.46 1358.11,334.78 C1353.30,335.12 1352.00,334.81 1349.00,332.60 C1338.85,325.15 1339.00,325.16 1330.33,331.33 C1323.75,336.01 1317.93,338.83 1313.34,339.56 C1310.17,340.07 1308.35,339.57 1302.98,336.72 L 1296.46 333.26 L 1291.37 337.94 C1283.73,344.96 1277.83,346.80 1257.57,348.48 C1241.60,349.81 1239.66,350.20 1227.50,354.53 C1207.40,361.68 1197.23,361.56 1186.00,354.03 C1183.53,352.37 1180.47,351.01 1179.21,351.00 C1177.69,351.00 1174.44,353.50 1169.51,358.45 C1159.11,368.93 1151.96,373.50 1146.01,373.50 C1141.45,373.50 1140.23,372.92 1131.26,366.40 C1127.42,363.61 1124.57,365.34 1116.64,375.27 C1107.82,386.31 1106.76,387.30 1100.98,389.92 C1094.77,392.74 1087.97,392.67 1085.24,389.75 ZM 801.05 200.42 C811.79,189.26 825.43,182.12 864.00,167.50 C1008.78,112.62 1140.12,72.06 1265.50,43.50 C1281.45,39.86 1297.65,36.26 1301.50,35.49 C1305.35,34.73 1316.38,32.48 1326.00,30.51 C1389.48,17.52 1474.09,4.80 1509.50,2.94 C1536.42,1.52 1570.02,0.41 1573.17,0.84 C1574.64,1.04 1576.87,2.16 1578.12,3.33 L 1580.40 5.45 L 1577.45 6.15 C1575.83,6.53 1562.57,7.81 1548.00,8.98 C1450.94,16.84 1336.08,36.20 1224.50,63.51 C1102.39,93.39 968.28,136.96 830.18,191.61 C812.96,198.42 798.58,204.00 798.23,204.00 C797.89,204.00 799.16,202.39 801.05,200.42 Z" fill="rgba(0,0,0,1)"/>
</g>
</svg>